<?xml version="1.0" standalone="no"?>
<!DOCTYPE svg PUBLIC "-//W3C//DTD SVG 20010904//EN"
 "http://www.w3.org/TR/2001/REC-SVG-20010904/DTD/svg10.dtd">
<svg version="1.0" xmlns="http://www.w3.org/2000/svg"
 width="2256.000000pt" height="2534.000000pt" viewBox="0 0 2256.000000 2534.000000"
 preserveAspectRatio="xMidYMid meet">

<g transform="translate(0.000000,2534.000000) scale(0.100000,-0.100000)"
fill="#ffffff" stroke="none">
<path d="M13311 25319 c-11 -12 -23 -36 -26 -53 -3 -17 -4 -166 -1 -331 20
-1297 25 -1667 31 -2380 7 -756 6 -812 -9 -828 -10 -9 -29 -17 -44 -17 -27 0
-119 -28 -202 -61 -25 -10 -56 -21 -70 -25 -14 -3 -32 -12 -40 -19 -8 -7 -26
-16 -40 -20 -13 -4 -36 -15 -50 -24 -31 -20 -56 -36 -94 -57 -168 -94 -377
-311 -537 -559 -10 -16 -37 -57 -59 -90 -22 -33 -49 -78 -60 -100 -11 -22 -31
-58 -44 -80 -76 -130 -246 -487 -246 -517 0 -7 -7 -26 -15 -42 -8 -15 -21 -51
-29 -80 -8 -28 -19 -64 -25 -81 -12 -33 -52 -174 -70 -245 -6 -25 -19 -83 -27
-130 -9 -47 -20 -93 -25 -102 -5 -9 -12 -45 -15 -80 -3 -35 -12 -85 -20 -112
-8 -27 -19 -88 -24 -135 -6 -47 -15 -100 -20 -117 -6 -17 -17 -77 -24 -135
-18 -128 -43 -294 -57 -374 -5 -33 -16 -113 -24 -178 -8 -65 -18 -141 -24
-170 -6 -29 -15 -104 -21 -167 -5 -64 -14 -140 -20 -170 -5 -30 -14 -110 -20
-177 -5 -67 -14 -154 -20 -193 -6 -39 -15 -137 -21 -217 l-10 -146 -57 -72
c-31 -40 -68 -87 -82 -105 -14 -18 -32 -40 -41 -49 -31 -32 -316 -395 -349
-446 -8 -12 -40 -60 -71 -106 -31 -46 -72 -110 -90 -142 -19 -33 -44 -75 -56
-95 -12 -21 -27 -48 -32 -62 -6 -14 -16 -32 -21 -40 -6 -8 -15 -26 -20 -40
-13 -32 -51 -110 -62 -130 -4 -8 -11 -22 -14 -30 -4 -8 -17 -38 -30 -67 -13
-28 -24 -58 -24 -65 0 -7 -9 -26 -20 -43 -11 -16 -20 -37 -20 -45 0 -8 -7 -28
-16 -45 -26 -50 -72 -174 -109 -295 -7 -25 -21 -63 -29 -85 -8 -22 -15 -49
-16 -59 0 -11 -9 -47 -19 -80 -10 -34 -24 -95 -31 -136 -7 -41 -17 -100 -22
-130 -4 -30 -10 -143 -12 -250 l-3 -195 -409 0 -409 0 -12 240 c-6 132 -16
299 -22 371 -7 71 -16 254 -21 405 -6 151 -14 328 -19 394 -5 66 -12 253 -16
415 -3 162 -10 313 -15 335 -5 22 -14 177 -20 345 -6 168 -17 454 -25 635 -8
182 -21 560 -30 840 -8 281 -20 529 -25 553 -6 23 -10 160 -11 305 0 144 -7
420 -15 612 -8 193 -19 559 -24 815 -5 256 -14 492 -19 525 -9 52 -25 602 -35
1215 -2 107 -8 310 -14 450 -19 462 -26 1081 -12 1115 l12 30 11 -25 c5 -14
21 -48 34 -77 12 -28 23 -58 23 -65 0 -8 6 -22 14 -33 7 -11 19 -36 24 -55 19
-61 53 -154 68 -187 7 -17 14 -39 14 -48 0 -9 9 -37 19 -63 24 -60 49 -133 65
-197 7 -27 22 -69 34 -92 20 -38 27 -43 55 -43 38 0 77 34 77 67 0 11 -9 40
-20 64 -11 24 -20 52 -20 62 0 10 -8 37 -19 60 -10 23 -22 57 -26 75 -4 18
-13 45 -21 60 -8 15 -14 33 -14 40 0 7 -8 34 -19 60 -10 26 -31 81 -46 122
-15 41 -36 93 -46 116 -10 23 -19 47 -19 55 0 8 -7 27 -16 44 -8 16 -29 63
-45 105 -17 41 -37 85 -45 97 -8 12 -14 28 -14 35 0 7 -11 34 -25 60 -14 26
-25 52 -25 59 0 7 -16 32 -36 55 -30 38 -41 44 -73 44 -30 0 -40 -5 -48 -22
-9 -22 0 -1061 12 -1298 3 -52 12 -417 20 -810 20 -940 42 -1822 61 -2360 9
-239 19 -606 24 -815 5 -209 14 -468 21 -575 7 -107 13 -256 15 -330 8 -337
25 -741 34 -805 6 -38 15 -209 20 -380 6 -170 15 -373 20 -450 6 -77 14 -255
19 -395 5 -140 16 -367 24 -505 9 -137 21 -349 27 -470 6 -121 15 -299 20
-395 5 -96 14 -278 20 -405 6 -126 15 -259 20 -295 5 -36 12 -166 15 -290 4
-124 11 -274 16 -335 10 -119 13 -175 30 -535 6 -129 15 -251 20 -270 5 -19
14 -150 19 -290 6 -140 15 -293 20 -340 5 -47 14 -186 20 -310 5 -124 13 -240
16 -257 l6 -33 -86 0 -87 0 3 -82 3 -83 87 -3 86 -3 6 -62 c3 -34 8 -109 11
-167 3 -58 12 -195 20 -305 8 -110 19 -274 25 -365 6 -91 15 -205 20 -255 5
-49 14 -182 20 -295 6 -113 15 -223 20 -245 5 -22 10 -81 10 -131 0 -108 16
-323 30 -414 6 -36 15 -153 20 -260 5 -107 14 -230 20 -273 5 -42 14 -155 19
-250 5 -94 17 -257 25 -362 65 -768 67 -806 34 -829 -12 -9 -29 -16 -38 -16
-8 0 -32 -9 -53 -20 -20 -11 -44 -20 -53 -20 -9 0 -35 -8 -58 -19 -23 -10 -66
-27 -96 -38 -165 -60 -209 -77 -248 -94 -23 -10 -49 -19 -57 -19 -8 0 -34 -8
-57 -19 -45 -19 -83 -33 -158 -58 -25 -8 -58 -21 -75 -28 -16 -7 -56 -22 -88
-34 -57 -20 -90 -32 -237 -86 -41 -15 -94 -35 -118 -46 -23 -10 -49 -19 -57
-19 -8 0 -34 -9 -57 -19 -24 -10 -69 -28 -101 -40 -83 -29 -151 -54 -237 -86
-79 -29 -141 -52 -237 -87 -32 -11 -78 -28 -103 -38 -56 -22 -102 -38 -160
-57 -25 -8 -58 -21 -75 -28 -54 -23 -139 -54 -170 -61 -16 -4 -46 -15 -65 -26
-19 -10 -43 -18 -52 -18 -10 0 -35 -9 -55 -20 -21 -11 -46 -20 -56 -20 -10 0
-35 -9 -57 -20 -22 -11 -47 -20 -57 -20 -10 0 -34 -8 -53 -19 -19 -10 -51 -22
-70 -26 -19 -4 -40 -12 -47 -17 -7 -5 -34 -16 -60 -23 -26 -8 -79 -26 -118
-40 -111 -41 -176 -65 -225 -81 -25 -8 -58 -21 -75 -28 -16 -8 -46 -17 -65
-21 -19 -4 -44 -13 -55 -20 -11 -7 -36 -16 -55 -20 -19 -4 -46 -13 -60 -21
-14 -7 -41 -18 -60 -23 -19 -6 -66 -22 -105 -36 -38 -15 -88 -33 -110 -41 -22
-7 -78 -27 -125 -44 -47 -17 -101 -35 -120 -41 -19 -5 -46 -16 -60 -23 -14 -8
-41 -17 -60 -21 -19 -4 -44 -13 -55 -20 -11 -7 -38 -16 -60 -20 -22 -4 -45
-11 -51 -16 -6 -5 -58 -25 -115 -44 -202 -68 -224 -76 -249 -89 -14 -7 -43
-17 -64 -21 -22 -3 -49 -13 -60 -21 -11 -8 -30 -14 -41 -14 -11 0 -36 -8 -55
-19 -19 -10 -53 -21 -75 -25 -22 -4 -45 -12 -51 -17 -6 -5 -58 -25 -115 -44
-177 -59 -223 -75 -254 -89 -41 -18 -121 -45 -170 -57 -21 -6 -45 -15 -52 -20
-6 -6 -34 -17 -60 -24 -26 -8 -79 -26 -118 -40 -38 -15 -92 -33 -120 -40 -27
-8 -59 -19 -70 -24 -22 -11 -115 -44 -185 -65 -25 -8 -76 -26 -115 -41 -38
-14 -90 -32 -115 -40 -25 -8 -63 -21 -85 -29 -22 -8 -47 -15 -56 -16 -8 0 -25
-9 -37 -20 -17 -17 -22 -32 -22 -75 0 -61 11 -73 44 -52 13 9 41 19 62 23 21
3 50 13 64 20 14 8 72 30 130 49 58 19 191 64 295 101 105 36 211 72 236 79
26 7 60 20 77 29 17 9 38 16 47 16 10 0 31 7 48 14 42 20 142 55 191 67 22 5
51 16 65 24 24 13 63 26 171 60 54 17 160 55 255 90 39 14 88 31 110 36 21 6
44 14 51 20 6 5 34 16 60 23 27 8 81 26 119 41 39 14 90 32 115 39 25 7 56 19
69 25 12 7 44 18 69 26 26 7 79 25 117 40 39 14 84 30 100 34 17 4 44 15 62
24 18 10 40 17 50 17 10 0 32 7 48 16 17 9 50 22 75 30 25 7 77 25 115 39 39
15 90 33 115 41 25 8 59 21 77 29 17 8 38 15 47 15 9 0 33 9 53 20 21 11 46
20 56 20 10 0 34 8 55 19 20 10 51 21 67 25 32 7 120 39 170 62 17 7 46 17 65
23 19 5 67 22 105 36 39 15 88 33 110 40 22 8 72 26 110 40 39 15 96 35 128
45 32 10 64 23 70 28 7 5 28 13 47 17 19 4 44 13 56 20 12 8 38 17 58 20 20 4
53 16 73 26 21 11 44 19 53 19 8 1 33 9 55 20 22 11 47 20 55 20 8 0 29 7 45
16 17 9 50 22 75 29 79 23 164 55 174 65 6 6 18 10 28 10 18 0 121 38 194 71
23 11 49 19 58 19 9 0 33 9 53 20 21 11 44 20 51 20 7 0 34 8 60 19 26 10 81
31 122 46 41 15 86 33 100 40 14 7 41 16 60 20 19 4 46 13 60 20 38 19 159 65
173 65 6 1 30 9 52 20 22 11 47 20 55 20 8 0 28 7 43 15 15 8 42 19 60 24 59
19 162 57 182 68 11 6 34 14 52 17 17 4 48 16 69 27 21 10 48 19 61 19 12 0
25 4 28 10 3 5 27 16 53 24 81 26 166 56 197 70 17 8 55 23 85 33 30 11 86 32
123 47 72 28 98 25 111 -11 4 -10 12 -97 17 -193 5 -96 14 -209 20 -250 5 -41
14 -151 20 -245 5 -93 14 -204 20 -245 5 -41 16 -158 24 -260 7 -102 18 -221
24 -265 6 -44 15 -145 20 -225 6 -80 15 -176 20 -215 5 -38 14 -140 21 -225 6
-85 15 -189 20 -230 6 -41 14 -140 20 -220 5 -80 17 -201 25 -270 8 -69 19
-193 25 -277 6 -84 15 -165 20 -180 4 -15 11 -89 14 -163 4 -75 13 -176 21
-225 8 -50 17 -144 20 -210 4 -66 13 -165 21 -220 8 -55 18 -167 23 -250 5
-82 16 -211 25 -285 8 -74 20 -180 25 -235 13 -142 35 -199 94 -249 47 -40 50
-40 125 -41 68 0 82 3 124 30 26 16 53 41 60 55 6 14 18 32 24 40 16 21 42
114 79 290 28 129 40 403 27 587 -7 89 -16 173 -22 187 -5 14 -14 63 -20 108
-11 93 -32 131 -74 136 -15 2 -39 -4 -53 -13 -28 -19 -28 -8 1 -199 9 -59 19
-112 22 -117 13 -21 23 -292 14 -399 -11 -140 -43 -339 -64 -399 -9 -24 -16
-54 -16 -66 0 -26 -53 -97 -81 -107 -35 -13 -68 9 -91 59 -17 39 -24 85 -34
243 -8 107 -18 229 -24 270 -5 41 -14 147 -20 235 -5 88 -14 187 -19 220 -6
33 -15 125 -21 205 -6 80 -17 197 -25 260 -7 63 -16 156 -19 205 -4 50 -13
142 -21 205 -8 63 -19 179 -25 256 -6 78 -15 157 -20 175 -4 19 -11 93 -14
164 -4 72 -13 171 -21 220 -8 50 -19 160 -25 245 -5 85 -14 187 -20 225 -6 39
-15 142 -20 230 -5 88 -14 194 -19 235 -6 41 -15 143 -20 225 -6 83 -18 224
-26 315 -8 91 -22 246 -31 345 -9 99 -20 248 -24 330 -5 83 -11 171 -15 198
-7 58 5 83 48 96 17 5 64 22 102 36 39 15 93 35 120 45 28 10 82 31 120 45 39
14 89 32 111 40 23 7 50 18 60 23 11 6 39 17 64 25 71 23 112 38 156 58 23 11
47 19 53 19 7 0 33 8 59 19 26 10 81 31 122 46 41 15 89 33 105 40 17 8 49 19
73 25 23 6 42 15 42 19 0 5 18 11 40 15 23 3 57 15 78 26 20 11 45 20 54 20
10 0 35 9 55 20 21 11 45 20 53 20 8 1 33 9 55 20 22 11 47 20 55 20 8 0 33 9
55 20 22 11 46 19 52 20 7 0 43 12 80 26 38 15 93 36 123 47 30 10 69 25 85
32 17 7 50 20 75 28 25 9 77 27 115 42 39 14 86 30 105 36 19 5 47 17 63 25
15 8 32 12 37 9 13 -8 13 -86 -1 -121 -5 -16 -17 -76 -25 -134 -8 -58 -19
-118 -24 -134 -6 -16 -15 -70 -21 -120 -6 -50 -17 -113 -24 -141 -7 -27 -16
-83 -20 -123 -3 -40 -12 -94 -20 -120 -7 -26 -16 -85 -20 -131 -4 -46 -11 -95
-16 -109 -5 -13 -16 -92 -24 -176 -8 -83 -19 -178 -24 -211 -16 -102 -24 -492
-12 -575 26 -180 48 -241 170 -480 15 -30 40 -87 56 -126 37 -98 84 -149 160
-175 74 -26 113 -26 184 -2 63 20 143 92 177 155 109 212 171 347 229 508 15
41 33 89 40 105 7 17 20 50 28 75 8 25 37 113 64 195 27 83 59 184 71 225 12
41 30 107 41 145 11 39 25 95 30 125 10 53 31 144 52 225 6 22 16 69 23 105 7
36 20 87 30 113 9 26 16 62 16 80 0 18 9 65 20 106 11 41 20 88 20 103 0 50
31 167 50 190 l18 23 11 -41 c6 -23 18 -47 27 -55 37 -31 46 -69 55 -253 14
-301 13 -353 -12 -374 -40 -33 -49 -66 -49 -172 0 -56 5 -131 10 -168 6 -37
15 -247 20 -467 6 -220 14 -490 20 -600 5 -110 15 -436 20 -725 6 -289 14
-622 19 -740 5 -118 14 -343 20 -500 13 -346 37 -743 57 -945 8 -82 19 -204
24 -270 5 -66 14 -149 20 -185 7 -36 18 -110 25 -165 21 -156 53 -347 64 -380
5 -16 15 -63 21 -104 6 -40 14 -81 19 -90 5 -9 12 -36 16 -61 3 -25 15 -71 26
-103 10 -31 19 -66 19 -78 0 -11 8 -41 19 -67 10 -26 23 -65 29 -87 11 -43 36
-119 57 -175 7 -19 25 -69 40 -110 15 -41 33 -88 40 -105 7 -16 25 -59 40 -95
53 -130 56 -133 126 -152 86 -22 88 -22 99 7 7 19 5 38 -9 73 -10 26 -21 80
-25 120 -4 40 -13 94 -21 120 -7 26 -16 81 -20 122 -4 41 -13 102 -20 135 -7
33 -16 92 -20 130 -3 39 -12 102 -20 140 -8 39 -19 117 -25 175 -6 58 -15 119
-20 135 -5 17 -12 62 -15 100 -3 39 -15 131 -25 205 -10 74 -24 173 -29 220
-6 47 -15 126 -21 175 -6 50 -18 142 -26 205 -8 63 -19 165 -24 225 -5 61 -17
153 -25 205 -9 52 -20 154 -25 225 -5 72 -14 155 -19 185 -6 30 -15 123 -20
205 -6 83 -15 184 -21 225 -5 41 -14 134 -19 205 -11 144 -34 411 -57 670 -9
94 -20 251 -25 350 -5 99 -14 227 -20 285 -7 58 -13 141 -15 185 -14 334 -26
527 -35 565 -5 25 -14 173 -20 330 -5 157 -14 332 -18 390 -5 58 -12 244 -17
413 -8 342 -11 327 57 327 44 0 138 41 165 72 18 21 49 67 81 123 7 11 23 43
36 70 63 130 85 184 117 290 10 33 22 71 28 85 6 14 20 59 32 100 12 41 30
102 41 135 10 33 23 87 28 120 6 33 18 85 26 115 8 30 15 65 15 79 0 13 7 47
15 75 8 28 20 70 25 93 10 40 12 42 79 62 90 27 105 27 122 -6 7 -16 19 -35
26 -43 7 -8 27 -32 44 -53 17 -21 55 -53 84 -72 44 -30 61 -35 108 -35 70 0
132 36 172 97 28 44 58 157 70 259 3 33 10 65 13 71 7 10 67 35 172 69 25 8
59 21 77 29 17 8 38 15 47 15 9 0 34 9 56 20 22 11 46 20 55 20 9 0 33 9 55
20 22 11 47 20 57 20 10 0 32 7 48 16 17 9 50 22 75 29 82 25 275 93 305 109
17 9 39 16 50 16 11 0 38 9 60 20 22 11 46 19 53 20 8 0 28 7 45 14 34 16 123
48 197 70 42 13 95 32 195 70 22 8 52 15 68 16 15 0 36 9 47 20 11 11 30 20
43 20 12 1 40 9 62 20 22 11 49 19 60 20 11 0 29 6 40 14 11 7 45 21 75 29 30
8 87 27 125 42 39 15 90 32 115 39 25 7 54 18 65 24 21 11 91 35 166 57 26 7
60 20 77 29 17 9 39 16 49 16 10 1 36 9 58 20 22 11 49 19 60 20 11 0 30 6 41
14 11 8 45 21 74 29 30 9 87 27 125 42 39 14 90 32 115 40 25 8 77 26 115 40
39 15 95 34 125 42 30 8 60 19 65 23 6 4 30 13 55 19 25 7 59 18 75 26 32 15
100 37 178 60 26 7 54 18 60 24 7 5 31 14 52 20 22 5 63 17 90 27 28 10 73 25
100 35 28 9 66 22 85 29 19 7 58 19 85 26 28 8 64 20 80 28 17 8 46 17 65 21
19 4 40 11 45 15 6 4 55 22 110 40 55 18 123 40 150 50 28 10 72 26 99 35 38
14 51 24 62 52 14 31 13 36 -6 63 -24 34 -51 38 -102 16 -18 -8 -64 -25 -103
-39 -38 -13 -86 -30 -105 -37 -19 -7 -57 -18 -85 -26 -27 -8 -59 -18 -70 -24
-21 -11 -109 -42 -185 -65 -101 -31 -147 -48 -186 -66 -23 -10 -48 -19 -57
-19 -8 0 -34 -9 -58 -20 -24 -11 -53 -20 -64 -20 -11 0 -38 -9 -60 -20 -22
-11 -48 -19 -58 -20 -10 0 -35 -9 -57 -20 -22 -11 -47 -20 -57 -20 -10 0 -31
-7 -47 -15 -15 -8 -51 -21 -80 -29 -28 -8 -82 -26 -121 -41 -38 -14 -90 -32
-115 -40 -77 -23 -143 -47 -188 -66 -23 -11 -50 -19 -60 -19 -9 0 -30 -7 -46
-15 -15 -8 -51 -21 -80 -29 -28 -8 -82 -26 -121 -41 -38 -14 -90 -32 -115 -40
-77 -24 -143 -47 -186 -66 -23 -11 -47 -19 -55 -19 -7 0 -36 -8 -64 -19 -27
-10 -66 -24 -85 -31 -289 -101 -413 -144 -450 -155 -25 -7 -58 -20 -75 -29
-16 -9 -38 -16 -48 -16 -10 0 -35 -9 -57 -20 -22 -11 -47 -20 -57 -20 -10 0
-30 -6 -45 -14 -15 -8 -52 -22 -82 -30 -31 -9 -56 -21 -56 -26 0 -6 -13 -10
-29 -10 -16 0 -42 -5 -58 -11 -47 -19 -275 -100 -328 -116 -27 -9 -55 -20 -61
-25 -7 -4 -34 -15 -60 -22 -27 -8 -80 -26 -119 -41 -38 -14 -88 -31 -110 -37
-22 -6 -45 -15 -51 -20 -7 -5 -34 -15 -60 -23 -64 -18 -161 -52 -202 -71 -18
-8 -52 -16 -75 -17 l-42 -2 0 125 0 124 -32 9 c-85 25 -117 -20 -131 -187 -9
-108 -12 -120 -38 -147 -15 -16 -48 -35 -73 -43 -116 -37 -148 -48 -177 -63
-51 -24 -74 -15 -95 42 -61 159 -75 213 -98 390 -16 117 -28 135 -91 135 -32
0 -58 -21 -64 -53 -21 -101 -26 -134 -31 -217 -3 -52 -11 -115 -16 -140 -5
-25 -16 -90 -24 -145 -22 -156 -31 -171 -131 -205 -32 -12 -77 -27 -99 -35
-22 -7 -71 -25 -110 -40 -38 -15 -90 -33 -115 -40 -25 -7 -59 -21 -77 -30 -26
-13 -37 -14 -54 -5 -21 12 -21 15 -16 208 6 215 18 373 42 525 17 108 14 120
-35 159 l-30 23 -10 550 c-11 582 -17 828 -26 1092 l-5 163 613 2 613 3 0 80
0 80 -200 5 c-165 4 -206 8 -232 22 -67 37 -63 -4 -63 705 l0 643 193 0 c161
0 207 -3 273 -20 217 -55 349 -179 403 -380 20 -74 28 -129 71 -460 45 -345
87 -474 186 -575 165 -168 470 -178 641 -22 112 102 175 243 207 459 25 169
29 158 -58 158 l-73 0 -7 -77 c-17 -187 -59 -296 -134 -345 -33 -22 -55 -22
-98 -2 -81 39 -131 152 -219 496 -101 400 -134 480 -249 594 -85 85 -164 128
-349 189 l-128 42 128 18 c397 55 612 161 753 371 28 43 61 109 77 157 24 73
27 97 27 222 1 120 -2 151 -22 215 -95 304 -343 491 -729 549 -39 6 -184 11
-322 11 -137 0 -252 4 -255 9 -3 4 3 35 14 67 33 100 52 166 65 229 7 33 18
74 23 90 14 39 39 141 57 232 8 40 18 80 23 90 6 10 13 41 17 68 4 28 13 70
20 95 8 25 19 77 26 115 6 39 15 77 20 86 4 9 13 47 19 85 6 38 15 80 20 94 6
14 16 59 24 100 21 111 45 228 61 290 8 30 17 78 20 105 9 73 14 95 24 95 13
0 39 -79 51 -160 25 -166 89 -313 161 -374 59 -50 177 -44 260 13 55 37 154
139 206 211 43 61 154 254 195 340 26 56 52 114 89 198 11 26 27 61 34 77 13
28 27 63 60 160 8 22 28 78 45 125 17 47 35 104 40 128 5 23 15 52 21 64 6 12
17 44 25 72 7 28 19 71 27 96 8 25 24 79 36 120 12 41 29 95 37 120 9 25 19
68 24 96 4 28 13 60 19 71 6 11 17 49 25 84 8 35 21 84 29 109 9 25 18 58 22
74 3 15 9 25 13 21 4 -3 9 -178 12 -388 l5 -382 28 -48 c117 -193 348 -195
540 -3 90 90 118 123 163 196 48 76 144 269 144 288 0 8 7 26 15 40 16 30 51
127 66 185 5 21 16 48 23 60 8 12 17 38 21 57 4 19 11 40 15 45 9 11 41 100
69 190 19 61 30 93 61 180 10 28 21 65 25 82 16 77 45 34 57 -82 4 -44 12
-147 17 -230 6 -82 15 -172 21 -200 6 -27 15 -81 21 -120 6 -38 19 -89 30
-112 10 -23 19 -47 19 -52 0 -16 62 -103 89 -126 68 -56 103 -69 186 -69 67 1
89 5 133 27 28 15 52 31 52 36 0 6 9 13 20 16 11 3 20 12 20 19 0 8 7 19 15
26 8 6 28 42 45 78 17 37 36 75 41 85 13 23 45 139 64 230 8 37 19 75 24 85 4
9 12 40 15 67 4 28 16 79 25 115 10 36 28 110 41 165 12 55 30 134 41 176 10
42 19 87 19 101 0 13 6 32 13 42 13 17 16 13 39 -45 14 -35 28 -82 32 -104 4
-22 13 -56 20 -75 14 -33 32 -100 60 -220 7 -30 20 -77 29 -105 8 -27 25 -84
37 -125 12 -41 28 -95 36 -120 9 -25 21 -67 29 -95 37 -131 49 -157 83 -173
45 -22 85 -7 92 33 5 29 -18 137 -35 165 -4 7 -14 38 -21 69 -6 31 -17 70 -23
86 -23 68 -50 162 -57 200 -4 22 -11 49 -17 60 -5 10 -19 51 -29 90 -10 38
-27 102 -38 140 -10 39 -26 97 -35 130 -9 33 -23 74 -31 92 -8 17 -14 41 -14
52 0 12 -7 38 -16 59 -9 20 -22 57 -30 82 -51 172 -70 203 -123 198 -44 -4
-68 -41 -82 -130 -5 -34 -16 -79 -23 -98 -7 -19 -17 -62 -21 -95 -4 -33 -13
-74 -20 -92 -7 -17 -17 -58 -20 -90 -4 -32 -13 -72 -20 -88 -6 -17 -15 -53
-19 -80 -4 -28 -13 -70 -21 -95 -8 -25 -19 -74 -25 -110 -7 -35 -16 -72 -21
-82 -5 -9 -14 -51 -20 -92 -5 -42 -17 -92 -25 -111 -7 -19 -14 -47 -14 -62 0
-16 -9 -45 -20 -66 -11 -20 -20 -43 -20 -50 0 -21 -40 -90 -72 -123 -57 -60
-157 -66 -207 -13 -57 62 -98 204 -106 369 -7 152 -30 449 -52 665 -8 88 -18
204 -22 258 -5 88 -9 101 -30 118 -13 10 -33 19 -46 19 -41 0 -53 -26 -104
-220 -42 -159 -87 -318 -100 -355 -6 -16 -31 -97 -57 -180 -43 -141 -55 -175
-103 -307 -11 -29 -23 -64 -27 -78 -3 -14 -13 -34 -20 -45 -8 -11 -14 -26 -14
-35 0 -8 -9 -32 -20 -53 -11 -20 -20 -42 -20 -49 0 -6 -9 -31 -20 -55 -21 -44
-53 -117 -64 -143 -3 -8 -19 -37 -36 -65 -16 -27 -38 -66 -49 -85 -26 -45 -97
-129 -141 -167 -117 -98 -229 -113 -286 -38 -13 17 -33 58 -44 91 -19 57 -20
90 -20 954 0 690 -3 901 -13 919 -19 37 -63 48 -96 24 -32 -25 -36 -42 -61
-301 -11 -111 -24 -219 -29 -240 -5 -20 -13 -71 -16 -112 -4 -41 -16 -108 -26
-149 -10 -41 -19 -86 -19 -99 0 -23 -11 -74 -56 -267 -9 -38 -22 -97 -29 -130
-11 -55 -34 -142 -86 -330 -11 -38 -26 -92 -33 -120 -8 -27 -21 -67 -30 -87
-9 -21 -16 -47 -16 -58 0 -12 -9 -42 -19 -68 -24 -60 -49 -134 -65 -197 -7
-27 -17 -59 -23 -70 -7 -11 -18 -40 -26 -65 -23 -71 -38 -112 -58 -156 -11
-23 -19 -47 -19 -53 0 -7 -8 -29 -19 -49 -10 -20 -27 -57 -38 -82 -11 -25 -30
-65 -41 -90 -12 -25 -26 -56 -32 -70 -5 -14 -14 -32 -20 -40 -5 -8 -15 -26
-21 -40 -5 -14 -21 -43 -34 -65 -13 -22 -32 -53 -41 -70 -26 -48 -82 -115
-152 -183 -94 -93 -131 -102 -186 -49 -45 43 -75 130 -86 253 -5 54 -14 124
-20 154 -5 30 -12 181 -16 335 -6 270 1 418 25 540 23 114 43 226 56 316 8 53
19 108 24 122 5 13 13 58 16 98 4 41 13 97 21 124 7 28 18 91 24 140 6 50 17
119 25 155 8 36 15 76 15 90 0 14 9 75 20 135 27 149 49 290 65 410 7 55 18
114 23 132 6 17 13 67 17 110 4 43 13 107 21 143 22 95 30 265 14 285 -18 22
-95 20 -119 -4 -18 -18 -41 -116 -41 -173 0 -14 -9 -51 -20 -83 -11 -32 -20
-68 -20 -80 0 -12 -8 -46 -19 -76 -10 -30 -21 -83 -25 -117 -4 -35 -12 -76
-18 -90 -5 -15 -16 -65 -23 -112 -34 -212 -46 -291 -60 -370 -9 -47 -20 -129
-25 -184 -6 -54 -12 -102 -15 -106 -3 -4 -14 -82 -24 -171 -11 -90 -24 -204
-30 -254 -6 -49 -15 -128 -20 -175 -6 -47 -15 -110 -21 -140 -15 -78 -49 -268
-55 -315 -4 -22 -12 -69 -20 -105 -8 -36 -26 -132 -40 -215 -15 -82 -35 -188
-45 -235 -10 -47 -21 -109 -25 -139 -3 -30 -10 -63 -16 -72 -5 -10 -14 -53
-19 -95 -5 -42 -16 -100 -24 -128 -8 -28 -19 -76 -24 -106 -6 -30 -22 -109
-37 -175 -47 -211 -66 -298 -79 -365 -8 -36 -21 -92 -29 -125 -9 -33 -21 -82
-27 -110 -18 -78 -55 -227 -86 -345 -9 -30 -21 -80 -28 -110 -7 -30 -17 -64
-23 -75 -6 -11 -14 -38 -17 -60 -4 -22 -16 -59 -26 -83 l-19 -42 -413 2 -413
3 2 130 c1 151 28 550 50 745 8 74 19 196 23 270 5 74 16 176 24 225 8 50 18
133 21 185 3 52 12 127 20 165 7 39 16 111 20 160 3 50 15 141 26 204 10 62
19 135 19 162 0 26 6 78 14 116 8 37 20 120 26 183 6 63 18 149 26 190 8 41
14 95 15 120 0 25 7 83 15 130 8 47 19 139 24 205 6 66 15 143 20 170 6 28 15
104 21 170 5 66 14 129 18 141 5 12 14 75 21 140 6 65 17 160 26 209 8 50 18
133 23 185 5 52 16 149 25 215 41 311 56 435 56 471 0 21 7 82 15 134 9 52 20
151 25 220 5 69 16 177 24 240 9 63 20 180 27 260 6 80 15 188 20 240 4 52 10
143 13 202 4 98 7 110 33 145 15 21 31 42 35 48 4 5 18 24 31 40 42 56 117
171 117 182 0 6 6 16 14 22 8 7 17 24 21 39 4 15 12 34 20 42 7 8 18 33 25 55
7 22 16 45 21 51 14 17 39 164 39 224 -1 145 -79 282 -192 341 -20 10 -39 23
-43 29 -3 5 -13 10 -21 10 -8 0 -34 9 -57 19 -65 30 -237 55 -377 55 -107 1
-186 -5 -368 -29 -26 -3 -39 2 -56 18 l-23 23 -7 1573 -7 1574 23 24 c21 22
23 36 27 139 4 148 -2 182 -37 194 -15 6 -34 14 -42 19 -9 5 -30 12 -47 15
-25 6 -35 3 -52 -15z m770 -3704 c29 -9 70 -20 90 -25 132 -34 229 -147 229
-266 0 -56 -34 -179 -65 -236 -8 -14 -15 -32 -15 -40 -1 -7 -16 -38 -35 -68
-18 -30 -47 -78 -64 -106 -29 -50 -152 -217 -235 -320 -23 -28 -50 -63 -61
-78 -11 -16 -29 -39 -40 -51 -12 -13 -32 -38 -45 -56 -14 -18 -53 -69 -88
-112 -35 -44 -82 -105 -105 -136 -91 -124 -164 -204 -181 -198 -12 4 -12 745
-1 1327 7 356 6 352 68 366 119 26 453 25 548 -1z m-757 -119 c3 -28 8 -434
11 -902 7 -953 13 -861 -64 -951 -53 -64 -277 -347 -287 -364 -5 -9 -24 -34
-41 -55 -45 -54 -193 -243 -288 -369 -44 -58 -107 -140 -141 -183 -33 -42 -65
-84 -70 -93 -5 -9 -24 -34 -41 -55 -18 -22 -55 -68 -83 -104 -28 -36 -65 -82
-83 -104 -17 -21 -36 -46 -41 -55 -5 -9 -35 -47 -66 -86 -31 -38 -82 -104
-112 -145 -140 -187 -201 -266 -217 -282 -9 -9 -27 -33 -41 -53 -14 -20 -38
-51 -53 -68 -15 -18 -42 -51 -60 -75 -18 -24 -51 -67 -74 -97 -24 -29 -43 -58
-43 -63 0 -13 -29 -24 -42 -16 -12 8 -3 198 13 279 5 28 16 109 23 180 17 153
40 331 66 505 10 69 23 163 29 210 18 148 48 354 59 395 6 22 13 73 17 113 3
40 13 94 20 119 8 26 17 78 21 117 4 39 10 78 15 88 5 9 15 54 23 100 18 110
67 309 106 433 10 33 22 78 25 100 4 22 13 49 20 60 6 11 15 37 19 57 6 34 25
84 60 163 8 17 25 55 39 85 13 30 29 66 35 80 7 14 30 57 52 95 22 39 48 86
58 105 9 19 33 60 52 90 19 30 40 62 45 71 15 25 88 132 102 149 7 8 33 42 58
74 49 65 209 232 246 259 13 9 55 39 94 67 38 27 75 50 81 50 6 0 23 9 37 20
14 11 33 20 42 20 9 0 33 9 53 19 42 22 103 43 211 72 41 10 77 22 80 25 12
11 30 -31 35 -80z m730 -1248 c-3 -46 -9 -101 -14 -123 -5 -22 -11 -110 -14
-195 -4 -85 -12 -195 -20 -245 -8 -49 -18 -146 -21 -215 -4 -69 -11 -136 -16
-149 -5 -13 -14 -91 -20 -175 -6 -83 -14 -167 -20 -186 -5 -19 -14 -87 -20
-150 -5 -63 -17 -158 -25 -210 -8 -52 -19 -135 -23 -185 -8 -85 -22 -190 -57
-450 -8 -60 -19 -159 -25 -220 -5 -60 -16 -146 -24 -190 -7 -44 -17 -120 -20
-170 -3 -49 -12 -121 -20 -160 -7 -38 -16 -108 -20 -155 -3 -47 -12 -119 -20
-160 -8 -41 -19 -127 -25 -190 -6 -63 -17 -151 -25 -195 -8 -44 -14 -98 -15
-120 0 -22 -9 -105 -19 -185 -11 -80 -29 -228 -41 -330 -12 -102 -23 -204 -26
-227 -6 -48 -21 -65 -28 -31 -3 13 -10 775 -16 1693 -6 919 -16 1697 -21 1730
-5 33 -9 170 -9 303 l0 244 63 80 c107 139 310 392 326 409 9 9 27 31 41 49
91 121 152 189 172 190 4 0 5 -37 2 -82z m-710 -980 c3 -79 10 -984 16 -2013
5 -1028 12 -2031 15 -2228 l6 -359 -41 -81 c-23 -45 -51 -98 -62 -117 -39 -63
-140 -215 -147 -220 -6 -5 -23 -28 -61 -85 -49 -73 -275 -319 -392 -428 -97
-89 -257 -223 -308 -257 -12 -8 -34 -24 -47 -34 -64 -49 -217 -147 -239 -152
-13 -3 -28 -12 -35 -20 -6 -8 -17 -14 -23 -14 -6 0 -33 -11 -61 -25 -27 -13
-58 -25 -68 -25 -10 0 -31 -7 -47 -15 -51 -26 -574 -86 -602 -68 -13 7 -8 702
6 758 l12 50 37 -50 c84 -114 158 -304 204 -525 l26 -130 74 0 74 0 -6 73 c-6
79 -55 937 -55 968 0 18 -9 19 -170 19 -128 0 -172 3 -175 13 -7 19 11 583 29
902 40 724 74 1237 86 1290 5 22 10 76 10 120 0 113 19 301 35 357 8 27 38 78
72 121 32 41 90 116 128 167 39 52 77 101 85 110 8 9 20 24 25 32 14 22 137
183 236 309 46 58 93 118 104 134 11 15 49 65 85 111 36 46 103 133 150 194
47 61 139 180 205 263 67 84 146 186 177 227 31 41 67 86 80 100 22 25 44 54
79 106 9 13 29 39 45 57 16 17 44 55 63 82 19 28 39 56 45 62 6 7 19 23 28 35
10 13 55 70 101 128 45 58 98 126 117 153 23 32 40 47 56 47 21 0 22 -4 28
-142z m-2070 -2524 c7 -17 -9 -271 -24 -384 -5 -41 -14 -149 -20 -240 -6 -91
-15 -198 -20 -238 -6 -40 -15 -168 -20 -285 -6 -117 -15 -266 -20 -332 -6 -66
-15 -248 -20 -405 -15 -402 -24 -548 -36 -560 -7 -7 -157 -9 -445 -8 l-434 3
0 230 c0 206 3 239 23 320 29 111 59 220 74 260 5 17 17 55 25 85 8 30 19 60
23 65 4 6 13 30 20 55 11 44 37 116 70 195 9 22 27 65 40 95 28 69 229 476
251 510 90 140 119 183 154 230 61 85 275 352 301 378 13 13 24 27 24 32 0 16
27 11 34 -6z m2026 -2569 l0 -45 40 0 40 0 0 -171 c0 -93 5 -200 10 -237 6
-41 11 -513 13 -1235 l2 -1167 -52 0 -53 0 0 -85 0 -85 54 0 53 0 12 -612 c18
-851 19 -1347 3 -1428 -7 -36 -16 -121 -21 -190 -5 -69 -16 -172 -24 -230 -8
-58 -20 -156 -26 -219 -14 -134 -27 -166 -74 -175 -18 -3 -51 -15 -72 -26 -22
-11 -48 -20 -58 -20 -10 0 -31 -7 -45 -15 -28 -15 -84 -36 -167 -62 -27 -9
-59 -22 -70 -29 -11 -8 -28 -14 -39 -14 -10 0 -37 -8 -60 -19 -58 -26 -146
-59 -181 -67 -16 -4 -35 -11 -42 -16 -15 -12 -156 -57 -164 -52 -7 4 14 128
41 254 11 47 22 105 25 130 4 25 13 68 20 95 8 28 17 75 20 105 4 30 11 73 17
95 6 22 19 87 30 145 11 58 28 146 38 195 10 50 28 140 40 200 12 61 22 120
22 133 0 35 -21 52 -63 52 -49 0 -69 -28 -81 -113 -4 -34 -15 -91 -23 -127 -8
-36 -22 -105 -31 -155 -9 -49 -24 -133 -34 -185 -10 -52 -23 -124 -30 -160 -6
-36 -20 -105 -30 -155 -20 -94 -34 -170 -51 -270 -6 -33 -19 -100 -30 -150
-10 -49 -19 -97 -19 -106 0 -41 -59 -75 -209 -121 -19 -5 -44 -16 -55 -23 -12
-7 -37 -16 -56 -20 -19 -4 -44 -13 -55 -20 -11 -7 -36 -16 -55 -20 -19 -4 -51
-16 -70 -26 -19 -11 -41 -19 -48 -19 -8 0 -28 -7 -45 -15 -18 -8 -50 -21 -72
-29 -22 -8 -71 -26 -110 -41 -38 -14 -86 -31 -105 -37 -19 -5 -46 -16 -60 -24
-14 -7 -41 -18 -60 -23 -19 -6 -66 -22 -105 -36 -38 -15 -88 -33 -110 -40 -22
-7 -53 -20 -70 -29 -16 -9 -38 -16 -48 -16 -11 0 -31 -7 -45 -15 -32 -17 -130
-52 -192 -68 -25 -6 -49 -17 -53 -24 -4 -7 -18 -13 -29 -13 -12 0 -40 -9 -62
-19 -23 -10 -82 -33 -132 -50 -50 -17 -104 -37 -120 -46 -16 -8 -36 -15 -44
-15 -8 0 -33 -9 -55 -20 -22 -11 -47 -20 -55 -20 -8 0 -28 -7 -45 -16 -16 -9
-43 -20 -60 -25 -48 -13 -166 -56 -190 -69 -12 -6 -35 -10 -51 -8 l-29 3 -11
150 c-6 83 -17 186 -23 230 -6 44 -16 161 -21 260 -5 99 -14 218 -20 265 -6
47 -14 164 -20 260 -5 96 -14 213 -19 260 -5 47 -15 155 -20 240 -12 170 -33
434 -57 720 -9 102 -20 277 -25 388 -5 112 -14 245 -19 295 -5 51 -14 189 -19
307 -6 118 -15 244 -20 280 -10 60 -31 362 -31 444 l0 36 835 0 835 0 1 -37
c0 -21 7 -123 15 -228 8 -104 19 -262 23 -351 5 -89 15 -212 24 -275 9 -63 21
-154 26 -204 12 -114 39 -277 56 -335 7 -25 17 -63 20 -85 23 -132 104 -255
169 -255 66 0 85 43 116 260 12 81 12 360 0 460 -17 146 -32 246 -47 310 -8
36 -21 111 -29 168 -7 56 -16 107 -19 113 -4 5 -13 45 -20 87 -19 108 -58 221
-112 325 l-24 47 201 0 c151 0 202 3 205 13 3 10 55 1090 55 1150 0 16 -9 18
-77 15 l-78 -3 -7 -50 c-45 -280 -115 -478 -223 -630 -44 -61 -131 -152 -139
-144 -2 2 -7 327 -11 721 -6 569 -5 721 5 733 10 11 36 15 114 16 55 0 126 5
156 10 30 5 100 14 155 19 55 5 118 16 140 23 22 8 59 18 82 22 23 3 59 15 80
26 20 10 42 19 49 19 46 0 388 211 499 308 11 10 45 37 75 62 112 90 267 239
390 375 120 132 300 358 300 377 0 4 5 8 10 8 6 0 10 -20 10 -45z m-3796 -68
c15 -10 36 -32 46 -50 19 -31 20 -61 20 -1327 0 -1275 0 -1296 -20 -1328 -22
-36 -74 -72 -106 -72 -20 0 -22 7 -28 113 -4 61 -12 198 -16 302 -5 105 -13
237 -19 295 -5 58 -15 204 -21 325 -6 121 -15 267 -20 325 -5 58 -14 209 -20
335 -7 127 -16 277 -21 335 -5 58 -13 202 -18 320 -5 118 -12 268 -16 334 l-8
118 110 -3 c84 -3 116 -8 137 -22z m1428 9 c78 -15 161 -47 173 -66 12 -19
-16 -893 -29 -909 -7 -9 -23 -11 -54 -7 -84 11 -82 6 -82 186 l0 160 -74 0
c-83 0 -86 -3 -86 -74 0 -53 -17 -147 -29 -159 -12 -12 -45 7 -111 62 -73 62
-87 76 -146 154 -69 90 -174 307 -174 360 0 9 -9 43 -19 74 -11 32 -24 90 -31
128 -6 39 -13 78 -16 88 -5 16 14 17 299 17 222 0 325 -4 379 -14z m2796 -10
c18 -9 42 -31 52 -49 19 -31 20 -54 20 -554 0 -384 -3 -524 -12 -529 -26 -16
-78 -5 -103 23 -13 15 -25 33 -25 38 0 6 -11 33 -25 60 -13 28 -25 59 -25 71
0 11 -10 56 -21 100 -20 72 -22 113 -26 473 l-6 394 69 -5 c38 -3 84 -13 102
-22z m1296 0 c192 -36 311 -153 368 -363 28 -106 31 -364 5 -463 -43 -163
-123 -260 -269 -330 -161 -77 -311 -100 -654 -100 l-215 0 3 283 3 282 29 65
c15 36 37 83 47 106 10 23 19 48 19 55 0 8 8 30 19 49 10 19 21 53 25 75 4 22
13 49 20 60 7 11 16 38 20 60 4 21 14 51 22 66 7 15 18 44 23 65 6 22 16 56
23 78 l13 39 210 -7 c116 -3 245 -12 289 -20z m-4918 -53 c3 -32 15 -85 24
-118 10 -33 21 -80 25 -105 4 -25 13 -55 21 -67 8 -12 14 -30 14 -40 0 -10 11
-40 25 -68 13 -27 25 -55 25 -62 0 -6 18 -44 41 -84 98 -172 199 -289 323
-372 38 -25 73 -48 79 -50 17 -5 -28 -71 -81 -118 -102 -90 -210 -119 -454
-119 l-118 0 0 591 c0 601 0 609 38 652 24 27 30 21 38 -40z m4231 -10 c-11
-38 -33 -106 -48 -153 l-28 -85 0 116 c-1 104 1 119 20 143 19 24 49 43 71 45
3 1 -3 -29 -15 -66z m-3277 -1072 l25 -18 5 -724 c3 -398 5 -726 4 -727 -5 -8
-63 64 -64 77 0 8 -8 33 -19 55 -35 76 -61 176 -72 273 -6 54 -13 101 -15 105
-2 3 0 9 6 13 6 4 10 174 10 492 l0 485 48 -6 c26 -4 58 -15 72 -25z m2500
-80 c0 -17 75 -81 108 -92 19 -6 56 -9 83 -7 l49 5 0 -686 c0 -663 -1 -687
-20 -718 -28 -47 -73 -66 -166 -71 l-81 -4 -6 778 c-4 537 -2 783 5 791 12 15
28 17 28 4z m-3179 -201 c140 -27 254 -113 318 -241 53 -105 69 -190 76 -402
5 -146 10 -197 32 -280 14 -56 29 -106 33 -112 4 -5 13 -28 20 -50 7 -22 18
-47 25 -55 7 -8 16 -26 20 -40 4 -14 13 -32 19 -40 28 -34 66 -109 58 -114 -5
-3 -49 -12 -97 -21 -107 -18 -695 -22 -759 -4 -22 6 -52 24 -68 39 l-28 28 0
651 0 651 149 0 c81 0 172 -5 202 -10z m939 -2059 c4 -42 15 -94 23 -116 9
-22 16 -54 17 -70 0 -17 7 -55 15 -85 33 -118 74 -585 53 -605 -3 -4 -15 -1
-26 6 -15 10 -23 31 -32 93 -6 45 -20 135 -30 201 -18 109 -47 372 -58 519 -2
32 -1 84 3 115 9 73 24 48 35 -58z m3083 -1874 c9 -27 -4 -57 -24 -57 -13 0
-20 36 -13 65 8 32 25 28 37 -8z m455 -124 c3 -67 1 -73 -28 -106 -28 -32 -33
-34 -67 -26 -26 5 -50 22 -80 56 -23 26 -41 53 -39 58 4 16 67 55 90 55 12 1
39 9 61 20 22 11 45 18 50 16 6 -1 11 -34 13 -73z m-745 -216 c7 -17 -10 -115
-28 -167 -8 -23 -15 -55 -15 -70 0 -15 -7 -49 -15 -76 -9 -27 -22 -76 -29
-109 -8 -33 -19 -73 -25 -90 -11 -31 -32 -99 -56 -175 -40 -129 -76 -227 -96
-260 -5 -8 -16 -30 -25 -48 -18 -40 -63 -92 -79 -92 -7 0 -18 -7 -25 -15 -17
-21 -67 -19 -79 3 -12 23 -19 148 -32 565 -12 397 -14 384 68 411 111 35 150
49 189 67 23 10 49 19 58 19 9 0 31 8 49 17 60 31 132 41 140 20z m-806 -293
c3 -9 -1 -51 -11 -93 -9 -42 -16 -97 -16 -121 -1 -25 -8 -81 -16 -125 -8 -44
-21 -136 -29 -205 -8 -69 -18 -137 -23 -150 -5 -14 -13 -56 -17 -94 -4 -38
-13 -89 -20 -114 -8 -25 -17 -70 -20 -101 -4 -31 -16 -89 -26 -130 -10 -41
-19 -87 -19 -102 0 -14 -6 -44 -14 -66 -8 -22 -19 -73 -25 -114 -7 -41 -18
-94 -26 -119 -14 -44 -32 -119 -60 -247 -8 -34 -18 -70 -23 -80 -5 -10 -13
-38 -17 -63 -4 -25 -12 -54 -17 -64 -6 -11 -17 -47 -25 -80 -7 -33 -18 -65
-22 -70 -5 -6 -12 -29 -16 -51 -4 -22 -15 -60 -25 -85 -9 -25 -23 -61 -29 -80
-7 -19 -24 -64 -38 -100 -13 -36 -29 -81 -35 -100 -5 -19 -16 -46 -23 -60 -8
-14 -23 -47 -35 -75 -121 -276 -180 -368 -252 -391 -62 -19 -141 37 -151 108
-6 45 -41 132 -62 158 -30 35 -96 176 -116 248 -19 69 -21 102 -22 307 0 229
17 434 58 695 8 52 19 129 24 170 13 102 31 219 47 315 8 44 21 127 29 185 9
58 20 119 25 135 5 17 12 57 16 90 3 33 13 89 21 125 8 36 19 94 23 129 10 76
35 107 108 132 97 34 118 42 160 60 23 11 50 19 60 19 9 0 34 9 55 20 20 11
45 20 55 20 9 0 33 8 52 19 19 10 51 22 70 26 19 4 44 13 55 20 11 7 36 16 55
20 19 4 46 13 60 21 14 7 41 18 60 23 19 6 60 19 90 30 67 25 99 26 107 5z
m410 -4316 c-3 -8 -6 -5 -6 6 -1 11 2 17 5 13 3 -3 4 -12 1 -19z m13 -210 c4
-132 1 -163 -12 -150 -14 14 -23 164 -13 229 7 44 8 46 15 21 5 -16 9 -61 10
-100z m33 -227 c4 -16 9 -89 12 -163 4 -73 11 -146 16 -163 4 -16 15 -111 24
-210 9 -99 20 -207 25 -240 5 -33 14 -112 20 -175 6 -63 17 -153 25 -200 7
-47 16 -125 20 -175 3 -49 10 -109 16 -132 5 -23 16 -106 24 -185 8 -79 19
-158 25 -176 5 -19 12 -73 15 -120 4 -48 13 -120 22 -161 16 -78 23 -254 11
-267 -13 -12 -18 -1 -33 72 -8 38 -26 119 -40 179 -14 61 -30 139 -36 175 -6
36 -17 96 -26 134 -9 38 -19 99 -23 135 -4 36 -15 113 -24 171 -27 177 -47
349 -56 486 -5 72 -14 173 -20 225 -10 87 -14 162 -35 647 -8 168 -7 172 12
172 15 0 22 -9 26 -29z m287 -2489 c-7 -12 -9 -2 -9 38 1 55 1 55 10 17 6 -24
5 -45 -1 -55z"/>
<path d="M10160 9905 c-6 -8 -14 -31 -17 -52 -4 -32 1 -46 31 -88 20 -27 56
-79 81 -115 24 -36 62 -90 85 -120 22 -30 58 -82 79 -115 22 -33 46 -67 54
-75 7 -8 26 -32 41 -52 23 -31 35 -38 63 -38 19 0 43 5 54 10 26 15 25 68 -3
107 -13 17 -30 41 -38 53 -22 32 -183 257 -227 317 -21 29 -49 69 -63 89 -60
88 -109 116 -140 79z"/>
<path d="M90 14211 l0 -79 183 -4 c166 -3 186 -5 229 -26 85 -42 78 77 78
-1395 l0 -1305 -26 -31 c-14 -17 -42 -35 -62 -41 -20 -5 -119 -10 -219 -10
l-183 0 0 -85 0 -85 753 2 752 3 3 82 3 82 -223 3 c-245 3 -265 8 -312 71 -21
28 -21 37 -24 602 l-2 573 392 5 c357 4 402 6 490 26 331 73 613 257 712 463
59 125 70 182 71 368 0 194 -11 248 -81 387 -99 199 -288 348 -529 418 -185
54 -209 55 -1142 55 l-863 0 0 -79z m1541 -71 c217 -22 325 -64 425 -164 71
-71 115 -155 141 -264 26 -109 26 -414 0 -523 -48 -203 -158 -335 -337 -402
-121 -46 -228 -57 -537 -57 l-283 0 2 654 c3 648 3 655 24 683 30 40 73 62
140 72 85 12 305 13 425 1z"/>
<path d="M3100 14211 l0 -79 173 -4 c191 -3 209 -9 247 -71 19 -31 20 -61 20
-1325 0 -1251 -1 -1294 -19 -1330 -33 -64 -70 -76 -259 -80 l-163 -4 3 -81 3
-82 1288 -3 c1025 -2 1289 0 1292 10 4 11 55 1074 55 1144 0 23 -3 24 -75 24
-52 0 -77 -4 -79 -12 -2 -7 -13 -69 -25 -138 -73 -418 -269 -702 -557 -806
-124 -46 -212 -54 -553 -54 -341 0 -377 4 -423 50 l-28 28 0 651 0 651 149 0
c172 0 232 -9 317 -49 115 -54 192 -146 238 -283 22 -64 34 -135 52 -295 l5
-43 75 0 74 0 0 725 0 725 -74 0 -75 0 -6 -47 c-31 -253 -75 -365 -181 -463
-98 -90 -212 -120 -456 -120 l-118 0 0 590 c0 652 -2 631 63 670 30 19 53 20
399 20 414 0 472 -6 594 -65 141 -68 254 -202 330 -390 36 -89 96 -309 109
-397 l7 -48 75 0 74 0 -6 78 c-5 70 -55 946 -55 971 0 8 -359 11 -1245 11
l-1245 0 0 -79z"/>
<path d="M6120 14210 l0 -80 155 0 c188 0 245 -11 294 -55 l36 -33 3 -1320 2
-1320 -26 -31 c-14 -17 -42 -35 -62 -41 -20 -5 -119 -10 -219 -10 l-183 0 0
-85 0 -85 753 2 752 3 3 82 3 82 -223 3 c-245 3 -265 8 -312 71 -21 28 -21 37
-24 602 l-2 573 392 5 c357 4 402 6 490 26 403 89 684 309 763 596 26 94 31
313 10 416 -64 316 -296 547 -638 634 -172 43 -210 45 -1108 45 l-859 0 0 -80z
m1541 -70 c57 -6 133 -18 169 -26 203 -46 345 -188 397 -399 24 -99 25 -418 0
-525 -50 -222 -191 -371 -403 -425 -112 -28 -200 -35 -476 -35 l-278 0 0 639
c0 428 4 649 11 668 24 65 67 89 189 107 56 8 295 5 391 -4z"/>
<path d="M16610 14210 l0 -80 158 0 c181 0 227 -13 259 -72 17 -31 18 -96 18
-1328 0 -1284 0 -1295 -20 -1330 -39 -65 -70 -75 -252 -79 l-163 -3 0 -84 0
-84 1289 0 1290 0 5 53 c3 28 15 273 26 542 11 270 21 510 22 535 l2 45 -76 3
-77 3 -5 -33 c-55 -339 -122 -519 -259 -697 -59 -77 -148 -145 -252 -196 -159
-76 -188 -80 -610 -80 -330 0 -373 2 -401 17 -66 36 -64 18 -64 722 l0 636
158 0 c235 0 331 -30 435 -134 88 -88 139 -223 159 -423 l12 -113 73 0 73 0 0
725 0 725 -74 0 -73 0 -8 -82 c-15 -174 -64 -303 -151 -398 -107 -115 -178
-139 -427 -147 l-178 -6 3 599 c3 575 4 600 23 628 36 54 51 56 452 56 406 0
455 -5 572 -60 219 -103 354 -325 434 -715 l24 -120 72 -3 c68 -3 71 -2 71 20
1 46 -51 974 -56 1006 l-5 32 -1239 0 -1240 0 0 -80z"/>
<path d="M19430 14210 l0 -80 39 0 c79 0 197 -22 246 -45 28 -13 69 -43 92
-67 23 -24 265 -391 538 -816 l496 -774 -3 -503 c-3 -494 -3 -504 -24 -532
-46 -62 -70 -68 -281 -71 l-193 -4 0 -84 0 -84 718 2 717 3 3 82 3 81 -193 4
c-174 3 -197 5 -233 25 -73 39 -70 9 -73 590 l-3 522 381 698 c229 419 404
727 437 771 98 129 206 185 379 199 l84 6 0 78 0 79 -600 0 -600 0 0 -80 0
-80 103 0 c168 0 250 -37 296 -134 27 -55 28 -148 2 -213 -10 -27 -146 -283
-303 -570 l-285 -522 -113 177 c-581 904 -691 1080 -701 1114 -15 59 3 95 60
121 39 17 73 21 219 25 l172 5 0 78 0 79 -690 0 -690 0 0 -80z"/>
<path d="M8826 72 c-2 -4 5 -23 16 -40 18 -29 25 -33 57 -30 31 3 36 7 36 28
0 16 -8 29 -25 37 -28 14 -76 17 -84 5z"/>
</g>
</svg>
